<?xml version="1.0" encoding="utf-8"?>
<!-- Generator: Adobe Illustrator 26.0.2, SVG Export Plug-In . SVG Version: 6.00 Build 0)  -->
<svg version="1.1" xmlns="http://www.w3.org/2000/svg" xmlns:xlink="http://www.w3.org/1999/xlink" x="0px" y="0px"
	 viewBox="0 0 566.9 566.9" style="enable-background:new 0 0 566.9 566.9;" xml:space="preserve">
<style type="text/css">
	.st0{fill:#3DB184;}
	.st1{fill:#243746;}
</style>
<g id="Layer_1">
	<rect x="-0.1" y="0" class="st0" width="566.9" height="566.9"/>
</g>
<g id="Layer_2">
	<g>
		<path class="st1" d="M244.5,213.3l2.7-2.7v-18.9l-2.7-2.7H98.7l-2.7,2.7v18.9l2.7,2.7h56.7l2.7,2.7v159.2l2.7,2.7h21.6l2.7-2.7
			V216l2.7-2.7H244.5L244.5,213.3z"/>
	</g>
	<polygon class="st1" points="427.6,375.2 470.7,210.6 470.7,191.7 468.1,189 451.9,189 449.2,191.7 414.1,329.3 411.4,329.3 
		370.9,191.7 368.2,189 343.9,189 341.2,191.7 300.7,329.3 298,329.3 263,191.7 260.3,189 244.1,189 241.4,191.7 241.4,210.6 
		284.5,375.2 287.3,377.9 311.5,377.9 314.2,375.2 354.7,232.2 357.4,232.2 397.9,375.2 400.6,377.9 424.9,377.9 427.6,375.2 	"/>
</g>
</svg>
